<svg xmlns="http://www.w3.org/2000/svg" width="1600" height="1000" viewBox="0 0 1600 1000" role="img" aria-labelledby="opposed-tree-leaf-bridge-title opposed-tree-leaf-bridge-description" data-generator="topology-lattice-relatives-v1" data-seed="1158672575"><title id="opposed-tree-leaf-bridge-title">Opposed tree leaf bridge</title><desc id="opposed-tree-leaf-bridge-description">One rooted tree grows from the floor and another from the ceiling; selected facing leaves bridge the open middle while one red route joins the two roots.</desc><rect width="1600" height="1000" fill="#f4efe6"/><g fill="none"><line x1="130.8" y1="649.65" x2="265.3" y2="503.71" stroke="#b63b34" stroke-width="3.8" opacity="0.9" stroke-linecap="round"/><line x1="265.3" y1="503.71" x2="399.81" y2="430.72" stroke="#171819" stroke-width="4.18" opacity="0.76" stroke-linecap="round"/><line x1="399.81" y1="430.72" x2="534.31" y2="394.2" stroke="#5b5550" stroke-width="3.56" opacity="0.76" stroke-linecap="round"/><line x1="534.31" y1="394.2" x2="668.82" y2="375.91" stroke="#5b5550" stroke-width="2.94" opacity="0.62" stroke-linecap="round"/><line x1="534.31" y1="394.2" x2="668.82" y2="412.39" stroke="#5b5550" stroke-width="2.94" opacity="0.62" stroke-linecap="round"/><line x1="399.81" y1="430.72" x2="534.31" y2="467.14" stroke="#5b5550" stroke-width="3.56" opacity="0.76" stroke-linecap="round"/><line x1="534.31" y1="467.14" x2="668.82" y2="448.86" stroke="#5b5550" stroke-width="2.94" opacity="0.62" stroke-linecap="round"/><line x1="534.31" y1="467.14" x2="668.82" y2="485.33" stroke="#5b5550" stroke-width="2.94" opacity="0.62" stroke-linecap="round"/><line x1="265.3" y1="503.71" x2="399.81" y2="576.61" stroke="#b63b34" stroke-width="3.8" opacity="0.9" stroke-linecap="round"/><line x1="399.81" y1="576.61" x2="534.31" y2="540.09" stroke="#5b5550" stroke-width="3.56" opacity="0.76" stroke-linecap="round"/><line x1="534.31" y1="540.09" x2="668.82" y2="521.81" stroke="#5b5550" stroke-width="2.94" opacity="0.62" stroke-linecap="round"/><line x1="534.31" y1="540.09" x2="668.82" y2="558.28" stroke="#5b5550" stroke-width="2.94" opacity="0.62" stroke-linecap="round"/><line x1="399.81" y1="576.61" x2="534.31" y2="613.04" stroke="#b63b34" stroke-width="3.8" opacity="0.9" stroke-linecap="round"/><line x1="534.31" y1="613.04" x2="668.82" y2="594.75" stroke="#b63b34" stroke-width="3.8" opacity="0.9" stroke-linecap="round"/><line x1="534.31" y1="613.04" x2="668.82" y2="631.22" stroke="#5b5550" stroke-width="2.94" opacity="0.62" stroke-linecap="round"/><line x1="130.8" y1="649.65" x2="265.3" y2="795.5" stroke="#171819" stroke-width="4.8" opacity="0.76" stroke-linecap="round"/><line x1="265.3" y1="795.5" x2="399.81" y2="722.5" stroke="#171819" stroke-width="4.18" opacity="0.76" stroke-linecap="round"/><line x1="399.81" y1="722.5" x2="534.31" y2="685.98" stroke="#5b5550" stroke-width="3.56" opacity="0.76" stroke-linecap="round"/><line x1="534.31" y1="685.98" x2="668.82" y2="667.7" stroke="#5b5550" stroke-width="2.94" opacity="0.62" stroke-linecap="round"/><line x1="534.31" y1="685.98" x2="668.82" y2="704.17" stroke="#5b5550" stroke-width="2.94" opacity="0.62" stroke-linecap="round"/><line x1="399.81" y1="722.5" x2="534.31" y2="758.93" stroke="#5b5550" stroke-width="3.56" opacity="0.76" stroke-linecap="round"/><line x1="534.31" y1="758.93" x2="668.82" y2="740.64" stroke="#5b5550" stroke-width="2.94" opacity="0.62" stroke-linecap="round"/><line x1="534.31" y1="758.93" x2="668.82" y2="777.12" stroke="#5b5550" stroke-width="2.94" opacity="0.62" stroke-linecap="round"/><line x1="265.3" y1="795.5" x2="399.81" y2="868.39" stroke="#171819" stroke-width="4.18" opacity="0.76" stroke-linecap="round"/><line x1="399.81" y1="868.39" x2="534.31" y2="831.87" stroke="#5b5550" stroke-width="3.56" opacity="0.76" stroke-linecap="round"/><line x1="534.31" y1="831.87" x2="668.82" y2="813.59" stroke="#5b5550" stroke-width="2.94" opacity="0.62" stroke-linecap="round"/><line x1="534.31" y1="831.87" x2="668.82" y2="850.06" stroke="#5b5550" stroke-width="2.94" opacity="0.62" stroke-linecap="round"/><line x1="399.81" y1="868.39" x2="534.31" y2="904.82" stroke="#5b5550" stroke-width="3.56" opacity="0.76" stroke-linecap="round"/><line x1="534.31" y1="904.82" x2="668.82" y2="886.53" stroke="#5b5550" stroke-width="2.94" opacity="0.62" stroke-linecap="round"/><line x1="534.31" y1="904.82" x2="668.82" y2="923.01" stroke="#5b5550" stroke-width="2.94" opacity="0.62" stroke-linecap="round"/><circle cx="130.8" cy="649.65" r="15.5" fill="#b63b34" stroke="#77231f" stroke-width="1.8" opacity="0.95"/><circle cx="265.3" cy="503.71" r="15.35" fill="#b63b34" stroke="#77231f" stroke-width="1.8" opacity="0.95"/><circle cx="399.81" cy="430.72" r="13.8" fill="#f4efe6" stroke="#5b5550" stroke-width="1.2" opacity="0.86"/><circle cx="534.31" cy="394.2" r="12.25" fill="#f4efe6" stroke="#5b5550" stroke-width="1.2" opacity="0.86"/><circle cx="668.82" cy="375.91" r="7.3" fill="#f4efe6" stroke="#5b5550" stroke-width="1.2" opacity="0.86"/><circle cx="668.82" cy="412.39" r="7.3" fill="#f4efe6" stroke="#5b5550" stroke-width="1.2" opacity="0.86"/><circle cx="534.31" cy="467.14" r="12.25" fill="#f4efe6" stroke="#5b5550" stroke-width="1.2" opacity="0.86"/><circle cx="668.82" cy="448.86" r="7.3" fill="#f4efe6" stroke="#5b5550" stroke-width="1.2" opacity="0.86"/><circle cx="668.82" cy="485.33" r="7.3" fill="#f4efe6" stroke="#5b5550" stroke-width="1.2" opacity="0.86"/><circle cx="399.81" cy="576.61" r="13.8" fill="#b63b34" stroke="#77231f" stroke-width="1.8" opacity="0.95"/><circle cx="534.31" cy="540.09" r="12.25" fill="#f4efe6" stroke="#5b5550" stroke-width="1.2" opacity="0.86"/><circle cx="668.82" cy="521.81" r="7.3" fill="#f4efe6" stroke="#5b5550" stroke-width="1.2" opacity="0.86"/><circle cx="668.82" cy="558.28" r="7.3" fill="#f4efe6" stroke="#5b5550" stroke-width="1.2" opacity="0.86"/><circle cx="534.31" cy="613.04" r="12.25" fill="#b63b34" stroke="#77231f" stroke-width="1.8" opacity="0.95"/><circle cx="668.82" cy="594.75" r="7.3" fill="#b63b34" stroke="#77231f" stroke-width="1.8" opacity="0.95"/><circle cx="668.82" cy="631.22" r="7.3" fill="#f4efe6" stroke="#5b5550" stroke-width="1.2" opacity="0.86"/><circle cx="265.3" cy="795.5" r="15.35" fill="#f4efe6" stroke="#171819" stroke-width="1.2" opacity="0.86"/><circle cx="399.81" cy="722.5" r="13.8" fill="#f4efe6" stroke="#5b5550" stroke-width="1.2" opacity="0.86"/><circle cx="534.31" cy="685.98" r="12.25" fill="#f4efe6" stroke="#5b5550" stroke-width="1.2" opacity="0.86"/><circle cx="668.82" cy="667.7" r="7.3" fill="#f4efe6" stroke="#5b5550" stroke-width="1.2" opacity="0.86"/><circle cx="668.82" cy="704.17" r="7.3" fill="#f4efe6" stroke="#5b5550" stroke-width="1.2" opacity="0.86"/><circle cx="534.31" cy="758.93" r="12.25" fill="#f4efe6" stroke="#5b5550" stroke-width="1.2" opacity="0.86"/><circle cx="668.82" cy="740.64" r="7.3" fill="#f4efe6" stroke="#5b5550" stroke-width="1.2" opacity="0.86"/><circle cx="668.82" cy="777.12" r="7.3" fill="#f4efe6" stroke="#5b5550" stroke-width="1.2" opacity="0.86"/><circle cx="399.81" cy="868.39" r="13.8" fill="#f4efe6" stroke="#5b5550" stroke-width="1.2" opacity="0.86"/><circle cx="534.31" cy="831.87" r="12.25" fill="#f4efe6" stroke="#5b5550" stroke-width="1.2" opacity="0.86"/><circle cx="668.82" cy="813.59" r="7.3" fill="#f4efe6" stroke="#5b5550" stroke-width="1.2" opacity="0.86"/><circle cx="668.82" cy="850.06" r="7.3" fill="#f4efe6" stroke="#5b5550" stroke-width="1.2" opacity="0.86"/><circle cx="534.31" cy="904.82" r="12.25" fill="#f4efe6" stroke="#5b5550" stroke-width="1.2" opacity="0.86"/><circle cx="668.82" cy="886.53" r="7.3" fill="#f4efe6" stroke="#5b5550" stroke-width="1.2" opacity="0.86"/><circle cx="668.82" cy="923.01" r="7.3" fill="#f4efe6" stroke="#5b5550" stroke-width="1.2" opacity="0.86"/><line x1="1471.04" y1="353.51" x2="1337.04" y2="498.62" stroke="#b63b34" stroke-width="3.8" opacity="0.9" stroke-linecap="round"/><line x1="1337.04" y1="498.62" x2="1203.03" y2="570.79" stroke="#171819" stroke-width="4.18" opacity="0.76" stroke-linecap="round"/><line x1="1203.03" y1="570.79" x2="1069.02" y2="606.5" stroke="#5b5550" stroke-width="3.56" opacity="0.76" stroke-linecap="round"/><line x1="1069.02" y1="606.5" x2="935.01" y2="623.98" stroke="#5b5550" stroke-width="2.94" opacity="0.62" stroke-linecap="round"/><line x1="1069.02" y1="606.5" x2="935.01" y2="587.51" stroke="#5b5550" stroke-width="2.94" opacity="0.62" stroke-linecap="round"/><line x1="1203.03" y1="570.79" x2="1069.02" y2="533.57" stroke="#5b5550" stroke-width="3.56" opacity="0.76" stroke-linecap="round"/><line x1="1069.02" y1="533.57" x2="935.01" y2="551.05" stroke="#5b5550" stroke-width="2.94" opacity="0.62" stroke-linecap="round"/><line x1="1069.02" y1="533.57" x2="935.01" y2="514.58" stroke="#5b5550" stroke-width="2.94" opacity="0.62" stroke-linecap="round"/><line x1="1337.04" y1="498.62" x2="1203.03" y2="424.93" stroke="#b63b34" stroke-width="3.8" opacity="0.9" stroke-linecap="round"/><line x1="1203.03" y1="424.93" x2="1069.02" y2="460.64" stroke="#b63b34" stroke-width="3.8" opacity="0.9" stroke-linecap="round"/><line x1="1069.02" y1="460.64" x2="935.01" y2="478.12" stroke="#5b5550" stroke-width="2.94" opacity="0.62" stroke-linecap="round"/><line x1="1069.02" y1="460.64" x2="935.01" y2="441.65" stroke="#b63b34" stroke-width="3.8" opacity="0.9" stroke-linecap="round"/><line x1="1203.03" y1="424.93" x2="1069.02" y2="387.71" stroke="#5b5550" stroke-width="3.56" opacity="0.76" stroke-linecap="round"/><line x1="1069.02" y1="387.71" x2="935.01" y2="405.18" stroke="#5b5550" stroke-width="2.94" opacity="0.62" stroke-linecap="round"/><line x1="1069.02" y1="387.71" x2="935.01" y2="368.72" stroke="#5b5550" stroke-width="2.94" opacity="0.62" stroke-linecap="round"/><line x1="1471.04" y1="353.51" x2="1337.04" y2="206.89" stroke="#171819" stroke-width="4.8" opacity="0.76" stroke-linecap="round"/><line x1="1337.04" y1="206.89" x2="1203.03" y2="279.07" stroke="#171819" stroke-width="4.18" opacity="0.76" stroke-linecap="round"/><line x1="1203.03" y1="279.07" x2="1069.02" y2="314.78" stroke="#5b5550" stroke-width="3.56" opacity="0.76" stroke-linecap="round"/><line x1="1069.02" y1="314.78" x2="935.01" y2="332.25" stroke="#5b5550" stroke-width="2.94" opacity="0.62" stroke-linecap="round"/><line x1="1069.02" y1="314.78" x2="935.01" y2="295.79" stroke="#5b5550" stroke-width="2.94" opacity="0.62" stroke-linecap="round"/><line x1="1203.03" y1="279.07" x2="1069.02" y2="241.85" stroke="#5b5550" stroke-width="3.56" opacity="0.76" stroke-linecap="round"/><line x1="1069.02" y1="241.85" x2="935.01" y2="259.32" stroke="#5b5550" stroke-width="2.94" opacity="0.62" stroke-linecap="round"/><line x1="1069.02" y1="241.85" x2="935.01" y2="222.86" stroke="#5b5550" stroke-width="2.94" opacity="0.62" stroke-linecap="round"/><line x1="1337.04" y1="206.89" x2="1203.03" y2="133.2" stroke="#171819" stroke-width="4.18" opacity="0.76" stroke-linecap="round"/><line x1="1203.03" y1="133.2" x2="1069.02" y2="168.91" stroke="#5b5550" stroke-width="3.56" opacity="0.76" stroke-linecap="round"/><line x1="1069.02" y1="168.91" x2="935.01" y2="186.39" stroke="#5b5550" stroke-width="2.94" opacity="0.62" stroke-linecap="round"/><line x1="1069.02" y1="168.91" x2="935.01" y2="149.92" stroke="#5b5550" stroke-width="2.94" opacity="0.62" stroke-linecap="round"/><line x1="1203.03" y1="133.2" x2="1069.02" y2="95.98" stroke="#5b5550" stroke-width="3.56" opacity="0.76" stroke-linecap="round"/><line x1="1069.02" y1="95.98" x2="935.01" y2="113.46" stroke="#5b5550" stroke-width="2.94" opacity="0.62" stroke-linecap="round"/><line x1="1069.02" y1="95.98" x2="935.01" y2="76.99" stroke="#5b5550" stroke-width="2.94" opacity="0.62" stroke-linecap="round"/><circle cx="1471.04" cy="353.51" r="15.5" fill="#b63b34" stroke="#77231f" stroke-width="1.8" opacity="0.95"/><circle cx="1337.04" cy="498.62" r="15.35" fill="#b63b34" stroke="#77231f" stroke-width="1.8" opacity="0.95"/><circle cx="1203.03" cy="570.79" r="13.8" fill="#f4efe6" stroke="#5b5550" stroke-width="1.2" opacity="0.86"/><circle cx="1069.02" cy="606.5" r="12.25" fill="#f4efe6" stroke="#5b5550" stroke-width="1.2" opacity="0.86"/><circle cx="935.01" cy="623.98" r="7.3" fill="#f4efe6" stroke="#5b5550" stroke-width="1.2" opacity="0.86"/><circle cx="935.01" cy="587.51" r="7.3" fill="#f4efe6" stroke="#5b5550" stroke-width="1.2" opacity="0.86"/><circle cx="1069.02" cy="533.57" r="12.25" fill="#f4efe6" stroke="#5b5550" stroke-width="1.2" opacity="0.86"/><circle cx="935.01" cy="551.05" r="7.3" fill="#f4efe6" stroke="#5b5550" stroke-width="1.2" opacity="0.86"/><circle cx="935.01" cy="514.58" r="7.3" fill="#f4efe6" stroke="#5b5550" stroke-width="1.2" opacity="0.86"/><circle cx="1203.03" cy="424.93" r="13.8" fill="#b63b34" stroke="#77231f" stroke-width="1.8" opacity="0.95"/><circle cx="1069.02" cy="460.64" r="12.25" fill="#b63b34" stroke="#77231f" stroke-width="1.8" opacity="0.95"/><circle cx="935.01" cy="478.12" r="7.3" fill="#f4efe6" stroke="#5b5550" stroke-width="1.2" opacity="0.86"/><circle cx="935.01" cy="441.65" r="7.3" fill="#b63b34" stroke="#77231f" stroke-width="1.8" opacity="0.95"/><circle cx="1069.02" cy="387.71" r="12.25" fill="#f4efe6" stroke="#5b5550" stroke-width="1.2" opacity="0.86"/><circle cx="935.01" cy="405.18" r="7.3" fill="#f4efe6" stroke="#5b5550" stroke-width="1.2" opacity="0.86"/><circle cx="935.01" cy="368.72" r="7.3" fill="#f4efe6" stroke="#5b5550" stroke-width="1.2" opacity="0.86"/><circle cx="1337.04" cy="206.89" r="15.35" fill="#f4efe6" stroke="#171819" stroke-width="1.2" opacity="0.86"/><circle cx="1203.03" cy="279.07" r="13.8" fill="#f4efe6" stroke="#5b5550" stroke-width="1.2" opacity="0.86"/><circle cx="1069.02" cy="314.78" r="12.25" fill="#f4efe6" stroke="#5b5550" stroke-width="1.2" opacity="0.86"/><circle cx="935.01" cy="332.25" r="7.3" fill="#f4efe6" stroke="#5b5550" stroke-width="1.2" opacity="0.86"/><circle cx="935.01" cy="295.79" r="7.3" fill="#f4efe6" stroke="#5b5550" stroke-width="1.2" opacity="0.86"/><circle cx="1069.02" cy="241.85" r="12.25" fill="#f4efe6" stroke="#5b5550" stroke-width="1.2" opacity="0.86"/><circle cx="935.01" cy="259.32" r="7.3" fill="#f4efe6" stroke="#5b5550" stroke-width="1.2" opacity="0.86"/><circle cx="935.01" cy="222.86" r="7.3" fill="#f4efe6" stroke="#5b5550" stroke-width="1.2" opacity="0.86"/><circle cx="1203.03" cy="133.2" r="13.8" fill="#f4efe6" stroke="#5b5550" stroke-width="1.2" opacity="0.86"/><circle cx="1069.02" cy="168.91" r="12.25" fill="#f4efe6" stroke="#5b5550" stroke-width="1.2" opacity="0.86"/><circle cx="935.01" cy="186.39" r="7.3" fill="#f4efe6" stroke="#5b5550" stroke-width="1.2" opacity="0.86"/><circle cx="935.01" cy="149.92" r="7.3" fill="#f4efe6" stroke="#5b5550" stroke-width="1.2" opacity="0.86"/><circle cx="1069.02" cy="95.98" r="12.25" fill="#f4efe6" stroke="#5b5550" stroke-width="1.2" opacity="0.86"/><circle cx="935.01" cy="113.46" r="7.3" fill="#f4efe6" stroke="#5b5550" stroke-width="1.2" opacity="0.86"/><circle cx="935.01" cy="76.99" r="7.3" fill="#f4efe6" stroke="#5b5550" stroke-width="1.2" opacity="0.86"/><line x1="668.82" y1="594.75" x2="935.01" y2="441.65" stroke="#b63b34" stroke-width="3.8" opacity="0.9" stroke-linecap="round"/></g></svg>
