<svg width="32" height="32" viewBox="-2.5 -1 24 24" fill="none" xmlns="http://www.w3.org/2000/svg">
<path d="M9.2002 0C10.6403 1.87583e-05 11.9261 0.20842 13.0576 0.625C12.6861 1.26887 12.5 2.03377 12.5 2.91992C12.5 4.29492 12.9475 5.39909 13.8418 6.23242C14.7361 7.02399 15.9554 7.41991 17.5 7.41992C17.788 7.41992 18.0647 7.40546 18.3301 7.37793C18.3756 7.77187 18.4004 8.17897 18.4004 8.59961V14.0801C18.4004 15.8399 18.0134 17.3731 17.2402 18.6797C16.4936 19.9596 15.44 20.9597 14.0801 21.6797C12.7201 22.373 11.0934 22.7197 9.2002 22.7197C7.3336 22.7197 5.70695 22.373 4.32031 21.6797C2.96031 20.9597 1.89345 19.9597 1.12012 18.6797C0.373523 17.3731 1.94192e-05 15.84 0 14.0801V8.63965C3.9917e-05 6.8798 0.373515 5.36 1.12012 4.08008C1.89345 2.77341 2.96031 1.77341 4.32031 1.08008C5.70694 0.360141 7.33361 0 9.2002 0ZM9.2002 4.36035C7.8937 4.36035 6.86676 4.71964 6.12012 5.43945C5.3735 6.1594 5.00005 7.22646 5 8.63965V14.0801C5.00002 15.4667 5.37348 16.5336 6.12012 17.2803C6.86677 18.0001 7.89366 18.3604 9.2002 18.3604C10.5334 18.3603 11.5603 18.0002 12.2803 17.2803C13.0269 16.5336 13.4004 15.4667 13.4004 14.0801V8.63965C13.4003 7.22646 13.0269 6.1594 12.2803 5.43945C11.5603 4.71955 10.5334 4.36039 9.2002 4.36035Z" fill="black"/>
<path d="M17.4201 5.79992C16.4067 5.79992 15.6067 5.54658 15.0201 5.03992C14.4334 4.50658 14.1401 3.79992 14.1401 2.91992C14.1401 2.03992 14.4334 1.34658 15.0201 0.839912C15.6067 0.30658 16.4067 0.039917 17.4201 0.039917C18.4334 0.039917 19.2334 0.30658 19.8201 0.839912C20.4067 1.34658 20.7001 2.03992 20.7001 2.91992C20.7001 3.79992 20.4067 4.50658 19.8201 5.03992C19.2334 5.54658 18.4334 5.79992 17.4201 5.79992Z" fill="#CA2121"/>
</svg>
